# xmcd
#
# Track frame offsets:
#	150
#	11522
#	23942
#	35952
#	47022
#	61770
#	73042
#	84185
#	98565
#	113407
#	130247
#	142047
#	152570
#	166365
#	176015
#	186990
#	200997
#	217042
#
# Disc length: 3094 seconds
#
# Revision: 4
# Processed by: cddbd v1.5.2PL0 Copyright (c) Steve Scherf et al.
# Submitted via: audiograbber 1.83.01
#
DISCID=fd0c1412
DTITLE=Donna Fargo - The Best Of
DYEAR=1995
DGENRE=Oldies
TTITLE0=The Happiest Girl In The Whole U.S.A.
TTITLE1=Funny Face
TTITLE2=Manhattan, Kansas
TTITLE3=Superman
TTITLE4=You Were Always There
TTITLE5=Little Girl Gone
TTITLE6=Just Call Me
TTITLE7=I'll Try A Little Bit Harder
TTITLE8=You Can't Be A Beacon (If Your Light Don't Shine)
TTITLE9=U.S. Of A.
TTITLE10=It Do Feel Good
TTITLE11=Hello Little Bluebird
TTITLE12=Whatever I Say
TTITLE13=What Will The New Year Bring 
TTITLE14=You're Not Charlie Brown (And I'm Not Raggedy Ann)
TTITLE15=Don't Be Angry
TTITLE16=Heartbreak Hotel
TTITLE17=Say I Do
EXTD=
EXTT0=
EXTT1=
EXTT2=
EXTT3=
EXTT4=
EXTT5=
EXTT6=
EXTT7=
EXTT8=
EXTT9=
EXTT10=
EXTT11=
EXTT12=
EXTT13=
EXTT14=
EXTT15=
EXTT16=
EXTT17=
PLAYORDER=
